<svg xmlns="http://www.w3.org/2000/svg" width="10" height="13" viewBox="0 0 10 13"><g><g><path fill="#c2c2c2" d="M8.436 6.698c.446 0 .83-.117 1.148-.423.32-.306.479-.656.479-1.084 0-.43-.16-.673-.48-.98-.32-.305-.704-.335-1.153-.335H3.44V2.084c0-.428-.074-.797-.39-1.102-.316-.307-.654-.46-1.097-.46-.457 0-.75.15-1.067.45-.317.301-.382.672-.382 1.113v6.236c0 1.287.404 2.345 1.355 3.258.95.913 2.022 1.326 3.362 1.326h3.215c.447 0 .83-.11 1.148-.415.32-.307.479-.652.479-1.08 0-.43-.16-.677-.48-.983-.318-.308-.701-.343-1.147-.343H5.219c-.446 0-.912-.259-1.225-.559-.312-.302-.555-.776-.555-1.206V6.698h4.997z"/></g></g></svg>